<svg version="1.1" id="Layer_1" xmlns="http://www.w3.org/2000/svg" x="0" y="0" viewBox="0 0 630.3 111.1" xml:space="preserve"><style>.st0{fill:#0064b2}.st1{fill:#ef1d28}</style><path class="st0" d="M292.4 23.4L291 30h6.7l-3.3 15.4h-20.6l.7-3.3h-9.7l-1 4.8c-.2.8-.1 1.6.2 2.2.3.6.8 1.2 1.4 1.6.6.4 1.3.8 2.2 1 .9.2 1.7.3 2.6.3h25c.9 0 1.9-.1 2.8-.3.9-.2 1.8-.5 2.6-.9s1.5-.9 2-1.6c.6-.6.9-1.4 1.1-2.3l5-23.4h-16.3zm59.5 2.9c-.3-.6-.8-1.2-1.4-1.6-.6-.4-1.3-.8-2.2-1-.9-.2-1.7-.3-2.6-.3h-25c-.9 0-1.9.1-2.8.3-.9.2-1.8.5-2.6.9s-1.5.9-2 1.6c-.6.6-.9 1.4-1.1 2.3l-3.9 18.3c-.2.9-.1 1.7.1 2.3.3.6.7 1.2 1.4 1.6.6.4 1.3.7 2.2.9.8.2 1.7.3 2.7.3h25c.9 0 1.8-.1 2.7-.3.9-.2 1.8-.5 2.6-1 .8-.4 1.5-1 2.1-1.6.6-.6 1-1.4 1.2-2.2l3.9-18.3c.1-.8 0-1.6-.3-2.2zm-13 19h-20.6l3.3-15.4h20.6l-3.3 15.4zm21.9-21.6c-.6.3-1.2.6-1.8 1-.6.4-1.1.9-1.5 1.3-.4.5-.7.9-.8 1.3l-1.7 8.1c-.2.9-.2 1.8 0 2.4.2.7.5 1.2.9 1.6.4.4 1 .7 1.6.9.6.2 1.3.3 2 .4h23.6c.2 0 .4.1.6.2.2.1.2.2.2.4l-.7 3.3c-.1.4-.4.5-1 .5H353l-1.4 6.6h35c.5 0 1.1-.1 1.8-.4.6-.3 1.2-.6 1.8-1 .6-.4 1-.8 1.4-1.3.4-.5.7-.9.7-1.3l1.7-8.2c.2-1 .2-1.8 0-2.5s-.6-1.2-1-1.6c-.5-.4-1.1-.7-1.8-.9-.7-.2-1.5-.3-2.3-.3h-23.1c-.6 0-.8-.2-.8-.5l.7-3.3c0-.1.1-.2.3-.4.2-.1.4-.2.7-.2h29.4l1.4-6.6h-35c-.5.2-1 .3-1.7.5zm96.2-.3l-17 19.8-8.5-19.8h-10.2l12.1 28.5h9.6l24.3-28.5z"/><path class="st1" d="M311.6 76.8h13.6l1.4-6.6H313l1-4.5h25.8l1.4-6.6h-35.5l-6.1 28.6h35.6l1.4-6.6h-25.9zm43.8-17.7h-9.7l-6 28.6h35.5l1.4-6.6h-25.9zm60.6 0L411.3 81h-20.6l4.7-21.9h-9.6l-5 23.4c-.2.9-.1 1.7.1 2.3.3.6.7 1.2 1.4 1.6.6.4 1.3.7 2.2.9.8.2 1.7.3 2.7.3h25c.9 0 1.8-.1 2.7-.3.9-.2 1.8-.5 2.6-1 .8-.4 1.5-1 2.1-1.6.6-.6 1-1.4 1.2-2.2l5-23.4H416zm49.5 12.2c-.5-.4-1.1-.7-1.8-.9-.7-.2-1.5-.3-2.3-.3h-23.1c-.6 0-.8-.2-.8-.5l.7-3.3c0-.1.1-.2.3-.4.2-.1.4-.2.7-.2h29.4l1.4-6.6h-35c-.5 0-1.1.1-1.7.4-.6.3-1.2.6-1.8 1-.6.4-1.1.9-1.5 1.3-.4.5-.7.9-.8 1.3l-1.7 8.1c-.2.9-.2 1.8 0 2.4.2.7.5 1.2.9 1.6.4.4 1 .7 1.6.9.6.2 1.3.3 2 .4h23.6c.2 0 .4.1.6.2s.2.2.2.4l-.7 3.3c-.1.4-.4.5-1 .5h-29.3l-1.4 6.6h35c.5 0 1.1-.1 1.8-.4.6-.3 1.2-.6 1.8-1 .6-.4 1-.8 1.4-1.3.4-.5.7-.9.7-1.3l1.7-8.2c.2-1 .2-1.8 0-2.5-.1-.5-.4-1.1-.9-1.5zm55.1-12.2h-12l-15.2 11.1h-11.6l2.3-11.1h-9.6l-6.1 28.6h9.7l2.3-10.9H492l10.3 10.9h12.2l-13.1-14.3zm40.7 2.9c-.3-.6-.8-1.2-1.4-1.6-.6-.4-1.3-.8-2.2-1-.9-.2-1.7-.3-2.6-.3h-25c-.9 0-1.9.1-2.8.3-.9.2-1.8.5-2.6.9s-1.5.9-2 1.6c-.6.6-.9 1.4-1.1 2.3l-3.9 18.3c-.2.9-.1 1.7.1 2.3.3.6.7 1.2 1.4 1.6.6.4 1.3.7 2.2.9.8.2 1.7.3 2.7.3h25c.9 0 1.8-.1 2.7-.3.9-.2 1.8-.5 2.6-1 .8-.4 1.5-1 2.1-1.6.6-.6 1-1.4 1.2-2.2l3.9-18.3c.1-.8.1-1.5-.3-2.2zm-13 19.1h-20.6l3.3-15.4h20.6l-3.3 15.4zm-252.4-22h-34.8l-1.4 6.6h28c.2 0 .4.1.6.2.1.1.2.2.2.4l-.7 3.4c-.1.4-.4.5-1 .5h-28l-3.7 17.4h36.6c1.8 0 3.4-1.3 3.8-3l1.8-8.1c.4-2-1.1-3.8-3.1-3.8h.7c1.3 0 2.4-.9 2.7-2.2L299 63c.4-2.1-1.1-3.9-3.1-3.9zm-9.2 21.3c-.1.4-.4.5-1 .5h-19.6l.9-4.3h19.6c.2 0 .4.1.6.2.2.1.2.2.2.4l-.7 3.2zm297.4.9c-.2.8-.2 1.2-.3 1.4-.5 2.4-1.4 3.5-3.2 4-1.3.4-2.9.5-6.2.5-5.7 0-7.5-.2-8.6-.9-.8-.5-1.1-1.4-.9-2.9.1-.7.3-1.9.8-3.7.8-3.3 1.1-4.5 1.6-5.3 1.2-2 2.9-2.4 10.6-2.4 3.9 0 5.2.2 6.1.7 1.1.6 1.3 1.7.8 4.1l-.2.7h-4.5c.2-1 .2-1.2 0-1.4-.3-.3-1.5-.4-4.3-.4s-3.6.1-4.2.4c-.6.4-1 1.3-1.5 3.5-.9 3.8-.8 3.8 3.9 3.8 4.9 0 5 0 5.5-2.2h4.6zm15.4-4c.9.8.9 1.7.3 4.3-.7 2.9-1.1 3.8-2.3 4.6-1.2.8-2.5 1-6.4 1-3.9 0-5.1-.2-5.9-1-.8-.8-.8-1.8-.1-4.8.6-2.4 1.1-3.4 2.3-4.2 1.1-.7 2.7-.9 6.2-.9 3.7 0 5.1.3 5.9 1zM589 81.9c-.3 1.4-.2 1.8.4 2.1.4.2 1.3.3 2.5.3 2.9 0 3.5-.4 4-2.6.3-1.4.2-1.9-.4-2.2-.4-.2-1.3-.3-2.4-.3-3 .1-3.6.5-4.1 2.7z"/><path class="st0" d="M155.6 48.1L137.9 72l-18.7-48.5-32.2-.1-10.8 14.7h32.5L128 87.8h16.6L174 48.1z"/><path class="st1" d="M224.5 55.6c1.7-2.1 3-4.5 3.8-7.2 1.7-6 .5-12.3-3.3-17.3s-9.5-7.8-15.8-7.8h-78.8l11.1 30L152.8 38h56.4c1.6 0 3.1.7 4 2 .6.7 1.4 2.3.8 4.4-.6 2.2-2.6 3.7-4.9 3.7h-24.9l-.2.3-11 14.8h36c1.6 0 3.1.7 4 2 .6.7 1.4 2.3.8 4.4-.6 2.2-2.6 3.7-4.9 3.7h-43.5l-11 14.8h54.5c8.8 0 16.7-5.9 19.1-14.4 1.7-6 .5-12.3-3.3-17.3.2-.4 0-.6-.2-.8zM85.6 71.5c-.2.8-.9 1.4-1.8 1.4h-43L30 87.7h53.9c7.8 0 14.7-5.6 16.2-13.3l5.7-26.4H90.5l-4.9 23.5z"/></svg>