<svg width="199.055" height="64.8" viewBox="0 0 52.667 17.145" xmlns="http://www.w3.org/2000/svg"><path class="st0" fill="#0064b2" d="M38.1 6.562h-4.868l-4.683 6.323L23.6.053 15.08.026l-2.857 3.89h8.599l5.106 13.15h4.392z"/><path class="st1" d="M51.461 8.546c.45-.556.794-1.19 1.006-1.905a5.171 5.171 0 00-.873-4.577A5.176 5.176 0 0047.414 0h-20.85l2.937 7.938 2.99-4.049h14.922c.424 0 .82.186 1.059.53.158.185.37.608.211 1.164a1.334 1.334 0 01-1.296.979h-6.588l-.053.08-2.91 3.915h9.524c.424 0 .82.185 1.059.53.159.184.37.608.211 1.163a1.334 1.334 0 01-1.296.98h-11.51l-2.91 3.915h14.42c2.328 0 4.419-1.561 5.054-3.81a5.171 5.171 0 00-.874-4.577c.053-.106 0-.159-.053-.212zM14.71 12.753a.485.485 0 01-.475.37H2.857L0 17.04h14.261c2.064 0 3.89-1.481 4.286-3.519l1.508-6.985h-4.048z" fill="#ef1d28"/></svg>