<?xml version="1.0" encoding="utf-8"?>
<!-- Generator: Adobe Illustrator 24.0.1, SVG Export Plug-In . SVG Version: 6.00 Build 0)  -->
<svg version="1.1" id="Layer_1" xmlns="http://www.w3.org/2000/svg" xmlns:xlink="http://www.w3.org/1999/xlink" x="0px" y="0px"
	 viewBox="0 0 630.3 111.1" style="enable-background:new 0 0 630.3 111.1;" xml:space="preserve">
<style type="text/css">
	.st0{fill:#0064B2;}
	.st1{fill:#EF1D28;}
</style>
<g>
	<g>
		<g>
			<path class="st0" d="M292.4,23.4l-1.4,6.6h6.7l-3.3,15.4h-20.6l0.7-3.3h-9.7l-1,4.8c-0.2,0.8-0.1,1.6,0.2,2.2
				c0.3,0.6,0.8,1.2,1.4,1.6c0.6,0.4,1.3,0.8,2.2,1c0.9,0.2,1.7,0.3,2.6,0.3h25c0.9,0,1.9-0.1,2.8-0.3c0.9-0.2,1.8-0.5,2.6-0.9
				c0.8-0.4,1.5-0.9,2-1.6c0.6-0.6,0.9-1.4,1.1-2.3l5-23.4H292.4z"/>
			<path class="st0" d="M351.9,26.3c-0.3-0.6-0.8-1.2-1.4-1.6c-0.6-0.4-1.3-0.8-2.2-1c-0.9-0.2-1.7-0.3-2.6-0.3h-25
				c-0.9,0-1.9,0.1-2.8,0.3c-0.9,0.2-1.8,0.5-2.6,0.9c-0.8,0.4-1.5,0.9-2,1.6c-0.6,0.6-0.9,1.4-1.1,2.3l-3.9,18.3
				c-0.2,0.9-0.1,1.7,0.1,2.3c0.3,0.6,0.7,1.2,1.4,1.6c0.6,0.4,1.3,0.7,2.2,0.9c0.8,0.2,1.7,0.3,2.7,0.3h25c0.9,0,1.8-0.1,2.7-0.3
				c0.9-0.2,1.8-0.5,2.6-1c0.8-0.4,1.5-1,2.1-1.6c0.6-0.6,1-1.4,1.2-2.2l3.9-18.3C352.3,27.7,352.2,26.9,351.9,26.3z M338.9,45.3
				h-20.6l3.3-15.4h20.6L338.9,45.3z"/>
			<path class="st0" d="M360.8,23.7c-0.6,0.3-1.2,0.6-1.8,1c-0.6,0.4-1.1,0.9-1.5,1.3c-0.4,0.5-0.7,0.9-0.8,1.3l-1.7,8.1
				c-0.2,0.9-0.2,1.8,0,2.4c0.2,0.7,0.5,1.2,0.9,1.6c0.4,0.4,1,0.7,1.6,0.9c0.6,0.2,1.3,0.3,2,0.4h23.6c0.2,0,0.4,0.1,0.6,0.2
				c0.2,0.1,0.2,0.2,0.2,0.4l-0.7,3.3c-0.1,0.4-0.4,0.5-1,0.5H353l-1.4,6.6h35c0.5,0,1.1-0.1,1.8-0.4c0.6-0.3,1.2-0.6,1.8-1
				c0.6-0.4,1-0.8,1.4-1.3c0.4-0.5,0.7-0.9,0.7-1.3l1.7-8.2c0.2-1,0.2-1.8,0-2.5c-0.2-0.7-0.6-1.2-1-1.6c-0.5-0.4-1.1-0.7-1.8-0.9
				c-0.7-0.2-1.5-0.3-2.3-0.3h-23.1c-0.6,0-0.8-0.2-0.8-0.5l0.7-3.3c0-0.1,0.1-0.2,0.3-0.4c0.2-0.1,0.4-0.2,0.7-0.2h29.4l1.4-6.6
				h-35C362,23.4,361.5,23.5,360.8,23.7z"/>
			<polygon class="st0" points="457,23.4 440,43.2 431.5,23.4 421.3,23.4 433.4,51.9 443,51.9 467.3,23.4 			"/>
		</g>
		<polygon class="st1" points="311.6,76.8 325.2,76.8 326.6,70.2 313,70.2 314,65.7 339.8,65.7 341.2,59.1 305.7,59.1 299.6,87.7 
			335.2,87.7 336.6,81.1 310.7,81.1 		"/>
		<polygon class="st1" points="355.4,59.1 345.7,59.1 339.7,87.7 375.2,87.7 376.6,81.1 350.7,81.1 		"/>
		<path class="st1" d="M416,59.1l-4.7,21.9h-20.6l4.7-21.9h-9.6l-5,23.4c-0.2,0.9-0.1,1.7,0.1,2.3c0.3,0.6,0.7,1.2,1.4,1.6
			c0.6,0.4,1.3,0.7,2.2,0.9c0.8,0.2,1.7,0.3,2.7,0.3h25c0.9,0,1.8-0.1,2.7-0.3c0.9-0.2,1.8-0.5,2.6-1c0.8-0.4,1.5-1,2.1-1.6
			c0.6-0.6,1-1.4,1.2-2.2l5-23.4H416z"/>
		<path class="st1" d="M465.5,71.3c-0.5-0.4-1.1-0.7-1.8-0.9c-0.7-0.2-1.5-0.3-2.3-0.3h-23.1c-0.6,0-0.8-0.2-0.8-0.5l0.7-3.3
			c0-0.1,0.1-0.2,0.3-0.4c0.2-0.1,0.4-0.2,0.7-0.2h29.4l1.4-6.6h-35c-0.5,0-1.1,0.1-1.7,0.4c-0.6,0.3-1.2,0.6-1.8,1
			c-0.6,0.4-1.1,0.9-1.5,1.3c-0.4,0.5-0.7,0.9-0.8,1.3l-1.7,8.1c-0.2,0.9-0.2,1.8,0,2.4c0.2,0.7,0.5,1.2,0.9,1.6
			c0.4,0.4,1,0.7,1.6,0.9c0.6,0.2,1.3,0.3,2,0.4h23.6c0.2,0,0.4,0.1,0.6,0.2s0.2,0.2,0.2,0.4l-0.7,3.3c-0.1,0.4-0.4,0.5-1,0.5h-29.3
			l-1.4,6.6h35c0.5,0,1.1-0.1,1.8-0.4c0.6-0.3,1.2-0.6,1.8-1c0.6-0.4,1-0.8,1.4-1.3c0.4-0.5,0.7-0.9,0.7-1.3l1.7-8.2
			c0.2-1,0.2-1.8,0-2.5C466.3,72.3,466,71.7,465.5,71.3z"/>
		<polygon class="st1" points="520.6,59.1 508.6,59.1 493.4,70.2 481.8,70.2 484.1,59.1 474.5,59.1 468.4,87.7 478.1,87.7 
			480.4,76.8 492,76.8 502.3,87.7 514.5,87.7 501.4,73.4 		"/>
		<path class="st1" d="M561.3,62c-0.3-0.6-0.8-1.2-1.4-1.6c-0.6-0.4-1.3-0.8-2.2-1c-0.9-0.2-1.7-0.3-2.6-0.3h-25
			c-0.9,0-1.9,0.1-2.8,0.3c-0.9,0.2-1.8,0.5-2.6,0.9c-0.8,0.4-1.5,0.9-2,1.6c-0.6,0.6-0.9,1.4-1.1,2.3l-3.9,18.3
			c-0.2,0.9-0.1,1.7,0.1,2.3c0.3,0.6,0.7,1.2,1.4,1.6c0.6,0.4,1.3,0.7,2.2,0.9c0.8,0.2,1.7,0.3,2.7,0.3h25c0.9,0,1.8-0.1,2.7-0.3
			c0.9-0.2,1.8-0.5,2.6-1c0.8-0.4,1.5-1,2.1-1.6c0.6-0.6,1-1.4,1.2-2.2l3.9-18.3C561.7,63.4,561.7,62.7,561.3,62z M548.3,81.1h-20.6
			l3.3-15.4h20.6L548.3,81.1z"/>
		<path class="st1" d="M295.9,59.1h-12.1h-22.7l-1.4,6.6h28c0.2,0,0.4,0.1,0.6,0.2c0.1,0.1,0.2,0.2,0.2,0.4l-0.7,3.4
			c-0.1,0.4-0.4,0.5-1,0.5h-28l-3.7,17.4h28.3h8.3c1.8,0,3.4-1.3,3.8-3l1.8-8.1c0.4-2-1.1-3.8-3.1-3.8h0.7c1.3,0,2.4-0.9,2.7-2.2
			l1.4-7.5C299.4,60.9,297.9,59.1,295.9,59.1z M286.7,80.4c-0.1,0.4-0.4,0.5-1,0.5h-19.6l0.9-4.3h19.6c0.2,0,0.4,0.1,0.6,0.2
			c0.2,0.1,0.2,0.2,0.2,0.4L286.7,80.4z"/>
	</g>
	<g>
		<path class="st1" d="M584.1,81.3c-0.2,0.8-0.2,1.2-0.3,1.4c-0.5,2.4-1.4,3.5-3.2,4c-1.3,0.4-2.9,0.5-6.2,0.5
			c-5.7,0-7.5-0.2-8.6-0.9c-0.8-0.5-1.1-1.4-0.9-2.9c0.1-0.7,0.3-1.9,0.8-3.7c0.8-3.3,1.1-4.5,1.6-5.3c1.2-2,2.9-2.4,10.6-2.4
			c3.9,0,5.2,0.2,6.1,0.7c1.1,0.6,1.3,1.7,0.8,4.1l-0.2,0.7h-4.5c0.2-1,0.2-1.2,0-1.4c-0.3-0.3-1.5-0.4-4.3-0.4
			c-2.8,0-3.6,0.1-4.2,0.4c-0.6,0.4-1,1.3-1.5,3.5c-0.9,3.8-0.8,3.8,3.9,3.8c4.9,0,5,0,5.5-2.2H584.1z"/>
		<path class="st1" d="M599.5,77.3c0.9,0.8,0.9,1.7,0.3,4.3c-0.7,2.9-1.1,3.8-2.3,4.6c-1.2,0.8-2.5,1-6.4,1c-3.9,0-5.1-0.2-5.9-1
			c-0.8-0.8-0.8-1.8-0.1-4.8c0.6-2.4,1.1-3.4,2.3-4.2c1.1-0.7,2.7-0.9,6.2-0.9C597.3,76.3,598.7,76.6,599.5,77.3z M589,81.9
			c-0.3,1.4-0.2,1.8,0.4,2.1c0.4,0.2,1.3,0.3,2.5,0.3c2.9,0,3.5-0.4,4-2.6c0.3-1.4,0.2-1.9-0.4-2.2c-0.4-0.2-1.3-0.3-2.4-0.3
			C590.1,79.3,589.5,79.7,589,81.9z"/>
	</g>
	<polygon class="st0" points="155.6,48.1 137.9,72 119.2,23.5 87,23.4 76.2,38.1 108.7,38.1 128,87.8 144.6,87.8 174,48.1 	"/>
	<path class="st1" d="M224.5,55.6c1.7-2.1,3-4.5,3.8-7.2c1.7-6,0.5-12.3-3.3-17.3c-3.8-5-9.5-7.8-15.8-7.8h-45.4l0,0h-33.4l11.1,30
		L152.8,38h39h17.4c1.6,0,3.1,0.7,4,2c0.6,0.7,1.4,2.3,0.8,4.4c-0.6,2.2-2.6,3.7-4.9,3.7h-24.9l-0.2,0.3l0,0l-11,14.8h36
		c1.6,0,3.1,0.7,4,2c0.6,0.7,1.4,2.3,0.8,4.4c-0.6,2.2-2.6,3.7-4.9,3.7h-43.5l-11,14.8h54.5c8.8,0,16.7-5.9,19.1-14.4
		c1.7-6,0.5-12.3-3.3-17.3C224.9,56,224.7,55.8,224.5,55.6z"/>
	<path class="st1" d="M85.6,71.5c-0.2,0.8-0.9,1.4-1.8,1.4h-43L30,87.7h53.9c7.8,0,14.7-5.6,16.2-13.3l5.7-26.4H90.5L85.6,71.5z"/>
</g>
</svg>
